HIERARCHY
ROOT hip
{
  OFFSET 0 0 0
  CHANNELS 6 Xposition Yposition Zposition Zrotation Yrotation Xrotation
  JOINT abdomen
  {
    OFFSET 0 20.6881 -0.73152
    CHANNELS 3 Zrotation Xrotation Yrotation
    JOINT chest
    {
      OFFSET 0 11.7043 -0.48768
      CHANNELS 3 Zrotation Xrotation Yrotation
      JOINT neck
      {
        OFFSET 0 22.1894 -2.19456
        CHANNELS 3 Zrotation Xrotation Yrotation
        JOINT head
        {
          OFFSET -0.24384 7.07133 1.2192
          CHANNELS 3 Zrotation Xrotation Yrotation
          JOINT leftEye
          {
            OFFSET 4.14528 8.04674 8.04672
            CHANNELS 3 Zrotation Xrotation Yrotation
            End Site
            {
              OFFSET 1 0 0
            }
          }
          JOINT rightEye
          {
            OFFSET -3.6576 8.04674 8.04672
            CHANNELS 3 Zrotation Xrotation Yrotation
            End Site
            {
              OFFSET 1 0 0
            }
          }
        }
      }
      JOINT rCollar
      {
        OFFSET -2.68224 19.2634 -4.8768
        CHANNELS 3 Zrotation Xrotation Yrotation
        JOINT rShldr
        {
          OFFSET -8.77824 -1.95073 1.46304
          CHANNELS 3 Zrotation Xrotation Yrotation
          JOINT rForeArm
          {
            OFFSET -28.1742 -1.7115 0.48768
            CHANNELS 3 Zrotation Xrotation Yrotation
            JOINT rHand
            {
              OFFSET -22.5879 0.773209 7.07136
              CHANNELS 3 Zrotation Xrotation Yrotation
              JOINT rThumb1
              {
                OFFSET -1.2192 -0.487915 3.41376
                CHANNELS 3 Zrotation Xrotation Yrotation
                JOINT rThumb2
                {
                  OFFSET -3.37035 -0.52449 3.41376
                  CHANNELS 3 Zrotation Xrotation Yrotation
                  End Site
                  {
                    OFFSET -1.78271 -1.18214 1.43049
                  }
                }
              }
              JOINT rIndex1
              {
                OFFSET -7.75947 0.938293 5.60832
                CHANNELS 3 Zrotation Xrotation Yrotation
                JOINT rIndex2
                {
                  OFFSET -2.54057 -0.884171 1.56538
                  CHANNELS 3 Zrotation Xrotation Yrotation
                  End Site
                  {
                    OFFSET -1.62519 -0.234802 1.16502
                  }
                }
              }
              JOINT rMid1
              {
                OFFSET -8.24714 1.18213 3.41376
                CHANNELS 3 Zrotation Xrotation Yrotation
                JOINT rMid2
                {
                  OFFSET -3.10165 -0.590103 1.0647
                  CHANNELS 3 Zrotation Xrotation Yrotation
                  End Site
                  {
                    OFFSET -2.48547 -0.328903 0.83742
                  }
                }
              }
              JOINT rRing1
              {
                OFFSET -8.82822 0.546677 1.51678
                CHANNELS 3 Zrotation Xrotation Yrotation
                JOINT rRing2
                {
                  OFFSET -2.60934 -0.819778 -0.0198488
                  CHANNELS 3 Zrotation Xrotation Yrotation
                  End Site
                  {
                    OFFSET -2.33842 -0.294052 0.168128
                  }
                }
              }
              JOINT rPinky1
              {
                OFFSET -8.27202 -0.0477905 -0.4584
                CHANNELS 3 Zrotation Xrotation Yrotation
                JOINT rPinky2
                {
                  OFFSET -1.82734 -0.647385 -0.700984
                  CHANNELS 3 Zrotation Xrotation Yrotation
                  End Site
                  {
                    OFFSET -1.69225 -0.51767 -0.607171
                  }
                }
              }
            }
          }
        }
      }
      JOINT lCollar
      {
        OFFSET 2.68224 19.2634 -4.8768
        CHANNELS 3 Zrotation Xrotation Yrotation
        JOINT lShldr
        {
          OFFSET 8.77824 -1.95073 1.46304
          CHANNELS 3 Zrotation Xrotation Yrotation
          JOINT lForeArm
          {
            OFFSET 28.1742 -1.7115 0.48768
            CHANNELS 3 Zrotation Xrotation Yrotation
            JOINT lHand
            {
              OFFSET 22.5879 0.773209 7.07136
              CHANNELS 3 Zrotation Xrotation Yrotation
              JOINT lThumb1
              {
                OFFSET 1.2192 -0.487915 3.41376
                CHANNELS 3 Zrotation Xrotation Yrotation
                JOINT lThumb2
                {
                  OFFSET 3.37035 -0.52449 3.41376
                  CHANNELS 3 Zrotation Xrotation Yrotation
                  End Site
                  {
                    OFFSET 1.78271 -1.18214 1.43049
                  }
                }
              }
              JOINT lIndex1
              {
                OFFSET 7.75947 0.938293 5.60832
                CHANNELS 3 Zrotation Xrotation Yrotation
                JOINT lIndex2
                {
                  OFFSET 2.54057 -0.884171 1.56538
                  CHANNELS 3 Zrotation Xrotation Yrotation
                  End Site
                  {
                    OFFSET 1.62519 -0.234802 1.16502
                  }
                }
              }
              JOINT lMid1
              {
                OFFSET 8.24714 1.18213 3.41376
                CHANNELS 3 Zrotation Xrotation Yrotation
                JOINT lMid2
                {
                  OFFSET 3.10165 -0.590103 1.0647
                  CHANNELS 3 Zrotation Xrotation Yrotation
                  End Site
                  {
                    OFFSET 2.48547 -0.328903 0.83742
                  }
                }
              }
              JOINT lRing1
              {
                OFFSET 8.82822 0.546677 1.51678
                CHANNELS 3 Zrotation Xrotation Yrotation
                JOINT lRing2
                {
                  OFFSET 2.60934 -0.819778 -0.0198488
                  CHANNELS 3 Zrotation Xrotation Yrotation
                  End Site
                  {
                    OFFSET 2.33842 -0.294052 0.168128
                  }
                }
              }
              JOINT lPinky1
              {
                OFFSET 8.27202 -0.0477905 -0.4584
                CHANNELS 3 Zrotation Xrotation Yrotation
                JOINT lPinky2
                {
                  OFFSET 1.82734 -0.647385 -0.700984
                  CHANNELS 3 Zrotation Xrotation Yrotation
                  End Site
                  {
                    OFFSET 1.69225 -0.51767 -0.607171
                  }
                }
              }
            }
          }
        }
      }
    }
  }
  JOINT rButtock
  {
    OFFSET -8.77824 4.35084 1.2192
    CHANNELS 3 Zrotation Xrotation Yrotation
    JOINT rThigh
    {
      OFFSET 0 -1.70687 -2.19456
      CHANNELS 3 Zrotation Xrotation Yrotation
      JOINT rShin
      {
        OFFSET 0 -36.8199 0.73152
        CHANNELS 3 Zrotation Xrotation Yrotation
        JOINT rFoot
        {
          OFFSET 0.73152 -45.1104 -5.12064
          CHANNELS 3 Zrotation Xrotation Yrotation
          End Site
          {
            OFFSET -1.1221 -3.69964 12.103
          }
        }
      }
    }
  }
  JOINT lButtock
  {
    OFFSET 8.77824 4.35084 1.2192
    CHANNELS 3 Zrotation Xrotation Yrotation
    JOINT lThigh
    {
      OFFSET 0 -1.70687 -2.19456
      CHANNELS 3 Zrotation Xrotation Yrotation
      JOINT lShin
      {
        OFFSET 0 -36.8199 0.73152
        CHANNELS 3 Zrotation Xrotation Yrotation
        JOINT lFoot
        {
          OFFSET -0.73152 -45.1104 -5.12064
          CHANNELS 3 Zrotation Xrotation Yrotation
          End Site
          {
            OFFSET 1.1221 -3.69964 12.103
          }
        }
      }
    }
  }
}
MOTION
Frames:	4
Frame Time:	0.00833333
-43.573 55.773799999999994 -99.9638 -173.645941 23.628657 -178.920493 2.112269 11.099132 166.135449 0.768384 2.502014 -154.422907 -11.229069 22.985513 -55.626563 37.444009 -7.720614 66.183293 -0.979039 -0.046905 5.485647 4.469299 -0.112017 -2.870018 -3.369401 13.387779 4.440209 56.198221 -10.640244 15.432745 -14.347234 10.634029 110.703256 -5.174967 22.049032 3.181207 -177.840486 -6.819524 77.250662 -161.666543 2.150428 78.793477 -135.107975 -2.923882 111.071325 6.306659 17.640351 -9.494425 -31.883263 38.547698 39.617872 -162.239493 -38.853622 155.535525 -108.306705 -69.648725 -133.067054 -156.275676 8.830137 -172.812256 -139.227805 54.186807 -152.185413 -168.886972 75.728658 -127.302088 -2.917795 -21.89652 5.549874 -68.618939 62.559885 6.912466 25.40279 -57.831509 -81.20603 3.787513 -24.320269 1.031051 -16.856154 -19.473341 4.085878 101.607978 29.262625 -93.337272 23.523621 29.726444 -14.122897 -53.415049 -50.149975 -11.304425 -0.185057 -6.805319 7.955874 10.506791 42.57905 -29.841004 155.194892 -9.407916 169.388456 -6.452458 49.080224 14.066736 -0.440797 -6.185245 -3.753287 155.419194 3.919312 131.718999 176.338523 75.886613 0.696156 149.640029 31.62461 19.11952 -156.027443 84.802577 51.352891 35.955737 32.548792 76.008255 -5.627112 2.935565 -1.94589 56.500374 -63.048395 -102.030622 -80.567766 -59.60504 14.093055 137.545697 63.013562 -51.904178
-43.398199999999996 55.334300000000006 -101.2812 -173.77466 23.217653 -179.902629 1.719805 11.442321 161.928199 0.466092 2.498732 -150.009126 11.317752 29.523097 111.558087 -38.115903 22.913065 -98.888989 0.8538 0.049654 6.656603 2.146744 -0.127591 -6.801907 2.002944 -15.156635 -2.820087 -122.915461 4.038092 -177.820842 9.601297 30.783316 -141.651062 162.382697 -30.423183 143.036853 -179.165806 -5.372653 76.299473 15.746403 -63.427199 23.079073 -64.40572 36.435047 59.144493 19.09135 -31.960046 -10.829379 31.407848 -33.395103 15.54072 -17.295579 31.487947 1.551888 -139.942344 4.598591 177.372524 -110.538612 -77.048516 -120.973678 11.287922 -10.90003 -3.115677 12.806024 61.420383 -3.978869 156.804276 -18.82038 -165.247844 39.691895 1.589754 14.442187 149.905793 37.523837 91.572937 1.961826 -29.468959 0.886004 -3.586123 -3.325369 5.395136 10.157178 18.163404 -8.705403 84.548973 45.133474 -70.977 -6.744819 1.033179 4.763057 -9.915814 -57.633785 12.958623 156.497536 -67.513953 -151.466184 29.14585 71.682508 -32.20792 83.255703 66.246653 -91.470156 -9.128878 24.211681 -14.524123 66.07723 -37.03276 61.433626 -66.873937 28.206557 -44.739715 73.005372 -19.45295 -34.602201 -98.167363 28.739497 -153.327814 -50.26396 -5.61153 -130.96854 -131.553468 67.076548 -34.682393 -179.538655 6.947339 -5.626306 -104.280652 82.395906 -98.800495 158.499221 18.521065 143.610814
-43.1939 54.8954 -102.4643 -173.912329 22.910561 179.076916 1.747567 11.664444 167.889549 1.021829 2.333417 -155.815947 12.46198 26.04694 87.577605 -40.215299 8.491165 -80.238133 2.944058 0.195148 7.583011 -0.756441 0.075331 -11.374101 -4.893752 22.914752 5.660733 -140.078724 -38.417791 152.063331 22.204238 -44.539629 -125.013106 165.039558 -23.326341 144.901142 -10.739328 -4.759562 13.583148 -92.084539 15.465746 95.024071 17.930748 -16.429306 3.622856 39.310932 -40.626686 9.399489 22.738741 -21.283501 14.967101 -179.508232 -49.881339 154.837076 -140.012416 2.010791 178.843211 -126.988256 -71.281715 -139.030523 -41.290575 -51.838425 -55.801851 -14.749224 -22.392016 6.674035 157.301906 -21.809562 -164.967685 52.317459 -38.472973 23.950572 -5.732475 5.648549 138.419166 171.043076 6.876816 -145.303616 172.795678 -13.204855 -95.912632 140.715275 14.241287 -69.618986 146.924686 -11.556826 -122.836665 -18.775399 -13.73573 9.655116 162.280852 -24.517351 -152.701536 6.309191 15.227964 14.55206 8.998468 26.328787 -0.33125 117.309329 56.037943 -136.784018 137.259407 13.358671 150.776567 4.80914 -56.827187 19.118738 70.905294 38.284781 49.948103 -127.906806 17.176471 -63.758329 -114.588198 54.990483 -46.074467 -145.94559 34.451306 -124.194085 171.033 73.184794 4.392922 -159.18831 3.172545 105.774412 87.066829 -20.708766 174.961735 38.51401 -44.668464 114.454612
-42.9657 54.465399999999995 -103.48029999999999 -174.057454 22.698898 178.026855 2.037358 16.666687 0.244388 -2.039588 -6.638024 11.776093 -5.960138 22.434417 -38.174751 30.718839 -22.616348 49.828188 5.248023 0.377921 8.232048 -4.344511 0.62429 -16.346855 -151.090743 -72.745926 -176.312577 116.704257 60.030695 -115.476303 174.52169 -17.142257 39.251398 162.333882 -28.306432 143.405597 174.608419 -3.831067 75.452086 -40.520495 -38.500405 -2.484398 32.965322 -35.620848 4.094949 175.882137 -30.24869 101.979152 -12.178941 22.583731 27.114626 -119.669975 74.220255 114.127589 -139.511058 0.992628 179.642097 -159.128951 -20.564882 -173.50896 -130.390151 20.03095 -144.661235 -92.109258 -52.067699 -114.122985 156.418177 -13.635389 -162.654788 35.20556 32.321029 9.320111 90.981074 49.702405 151.666623 -7.478246 -52.427696 -2.286043 86.819432 45.615521 -50.682097 -31.256994 -33.177828 -25.653042 157.788964 -36.500573 -126.001297 1.398156 25.654294 0.536512 4.296997 25.8571 0.413581 177.762688 -33.761659 -124.855877 49.97909 -59.910231 56.009501 119.920966 -61.074589 154.981095 134.655285 22.670429 155.030104 115.215048 61.447137 175.909053 1.618257 -1.394918 4.324319 -41.172136 -41.133948 -66.529918 -115.880507 49.0003 -63.487058 -142.061717 19.799586 -138.007052 -5.064581 2.035163 -1.516415 55.231366 -60.69984 -89.7378 -88.60754 -34.246117 177.264123 -31.29273 34.73733 -75.014757
